# xmcd CD database file
#
# Track frame offsets:
#	150
#	18216
#	52211
#	122364
#	136785
#
# Disc length: 2886 seconds
#
# Revision: 0
# Processed by: cddbd v1.5.2PL0 Copyright (c) Steve Scherf et al.
# Submitted via: CDex 1.70beta3
#
DISCID=380b4405
DTITLE=Arashi - Semikujira
DYEAR=2015
DGENRE=Jazz
TTITLE0=Snowing on the Temple Garden
TTITLE1=Blow of Humpback Whale
TTITLE2=Saitaro-bushi - Atlantis Version (From Japanese Trad. Song)
TTITLE3=Again Sheep said "Wolf is Coming"
TTITLE4=Semikujira (Right Whale)
EXTD=YEAR: 2015
EXTT0=
EXTT1=
EXTT2=
EXTT3=
EXTT4=
PLAYORDER=
